<mxfile host="app.diagrams.net" modified="2023-10-19T08:51:16.703Z" agent="Mozilla/5.0 (Windows NT 10.0; Win64; x64) AppleWebKit/537.36 (KHTML, like Gecko) Chrome/118.0.0.0 Safari/537.36" etag="lpSf4Yrwle0khslx38bD" version="22.0.5" type="github">
  <diagram id="kgpKYQtTHZ0yAKxKKP6v" name="GetWorkingKey">
    <mxGraphModel dx="1434" dy="749" grid="1" gridSize="10" guides="1" tooltips="1" connect="1" arrows="1" fold="1" page="1" pageScale="1" pageWidth="850" pageHeight="1100" math="0" shadow="0">
      <root>
        <mxCell id="0" />
        <mxCell id="1" parent="0" />
        <mxCell id="4UCuMIv_gCTeZRdxv0KL-97" value="Get Working Key" style="swimlane;html=1;childLayout=stackLayout;startSize=20;rounded=0;shadow=0;comic=0;labelBackgroundColor=none;strokeWidth=1;fontFamily=Verdana;fontSize=12;align=center;swimlaneLine=1;" vertex="1" parent="1">
          <mxGeometry x="50" y="40" width="870" height="640" as="geometry" />
        </mxCell>
        <mxCell id="4UCuMIv_gCTeZRdxv0KL-99" value="Terminal" style="swimlane;html=1;startSize=20;" vertex="1" parent="4UCuMIv_gCTeZRdxv0KL-97">
          <mxGeometry y="20" width="120" height="620" as="geometry" />
        </mxCell>
        <mxCell id="4UCuMIv_gCTeZRdxv0KL-108" value="Transaction Hub" style="swimlane;html=1;startSize=20;" vertex="1" parent="4UCuMIv_gCTeZRdxv0KL-97">
          <mxGeometry x="120" y="20" width="250" height="620" as="geometry" />
        </mxCell>
        <mxCell id="4UCuMIv_gCTeZRdxv0KL-120" value="Database" style="swimlane;html=1;startSize=20;" vertex="1" parent="4UCuMIv_gCTeZRdxv0KL-97">
          <mxGeometry x="370" y="20" width="250" height="620" as="geometry" />
        </mxCell>
        <mxCell id="4UCuMIv_gCTeZRdxv0KL-140" value="Processor" style="swimlane;html=1;startSize=20;" vertex="1" parent="4UCuMIv_gCTeZRdxv0KL-97">
          <mxGeometry x="620" y="20" width="250" height="620" as="geometry" />
        </mxCell>
      </root>
    </mxGraphModel>
  </diagram>
</mxfile>
